<svg width="405" height="67" viewBox="0 0 405 67" fill="none" xmlns="http://www.w3.org/2000/svg">
<path fill-rule="evenodd" clip-rule="evenodd" d="M17.4989 14.1395C19.6098 12.6734 22.1688 11.8164 24.9188 11.8164H43.907V0H24.9188C11.1262 0 0 11.1936 0 24.9302C0 38.6669 11.1262 49.8605 24.9188 49.8605H30.8733C28.7624 51.3266 26.2033 52.1836 23.4533 52.1836H4.46518V64H23.4533C37.246 64 48.3722 52.8065 48.3722 39.0698C48.3722 25.3331 37.246 14.1395 23.4533 14.1395H17.4989ZM11.9006 25.956C12.4224 32.7446 18.0802 38.044 24.9188 38.044H36.4715C35.9497 31.2555 30.292 25.956 23.4533 25.956H11.9006Z" fill="#0047FF"/>
<path d="M88.88 54.6C86.28 54.6 83.88 54.3 81.68 53.7C79.52 53.06 77.7 52.18 76.22 51.06L78.32 46.02C79.84 47.06 81.52 47.86 83.36 48.42C85.2 48.98 87.06 49.26 88.94 49.26C90.94 49.26 92.42 48.92 93.38 48.24C94.38 47.56 94.88 46.64 94.88 45.48C94.88 44.56 94.56 43.84 93.92 43.32C93.32 42.76 92.34 42.34 90.98 42.06L84.98 40.92C82.42 40.36 80.46 39.4 79.1 38.04C77.78 36.68 77.12 34.9 77.12 32.7C77.12 30.82 77.62 29.16 78.62 27.72C79.66 26.28 81.12 25.16 83 24.36C84.92 23.52 87.16 23.1 89.72 23.1C91.96 23.1 94.06 23.4 96.02 24C98.02 24.6 99.7 25.5 101.06 26.7L98.9 31.56C97.66 30.56 96.24 29.78 94.64 29.22C93.04 28.66 91.48 28.38 89.96 28.38C87.88 28.38 86.36 28.76 85.4 29.52C84.44 30.24 83.96 31.18 83.96 32.34C83.96 33.22 84.24 33.96 84.8 34.56C85.4 35.12 86.32 35.54 87.56 35.82L93.56 36.96C96.24 37.48 98.26 38.4 99.62 39.72C101.02 41 101.72 42.76 101.72 45C101.72 47 101.18 48.72 100.1 50.16C99.02 51.6 97.52 52.7 95.6 53.46C93.68 54.22 91.44 54.6 88.88 54.6Z" fill="white"/>
<path d="M107.539 54V31.26C107.539 30.02 107.499 28.76 107.419 27.48C107.339 26.2 107.219 24.94 107.059 23.7H114.319L114.919 29.7H114.199C115.159 27.58 116.579 25.96 118.459 24.84C120.339 23.68 122.519 23.1 124.999 23.1C128.559 23.1 131.239 24.1 133.039 26.1C134.839 28.1 135.739 31.22 135.739 35.46V54H128.239V35.82C128.239 33.38 127.759 31.64 126.799 30.6C125.879 29.52 124.479 28.98 122.599 28.98C120.279 28.98 118.439 29.7 117.079 31.14C115.719 32.58 115.039 34.5 115.039 36.9V54H107.539Z" fill="white"/>
<path d="M154.791 54.6C152.151 54.6 149.831 53.98 147.831 52.74C145.831 51.46 144.271 49.64 143.151 47.28C142.031 44.92 141.471 42.1 141.471 38.82C141.471 35.54 142.031 32.74 143.151 30.42C144.271 28.06 145.831 26.26 147.831 25.02C149.831 23.74 152.151 23.1 154.791 23.1C157.351 23.1 159.591 23.74 161.511 25.02C163.471 26.26 164.771 27.94 165.411 30.06H164.751L165.411 23.7H172.611C172.491 24.94 172.371 26.2 172.251 27.48C172.171 28.76 172.131 30.02 172.131 31.26V54H164.691L164.631 47.76H165.351C164.711 49.84 163.411 51.5 161.451 52.74C159.491 53.98 157.271 54.6 154.791 54.6ZM156.891 48.84C159.251 48.84 161.151 48.02 162.591 46.38C164.031 44.7 164.751 42.18 164.751 38.82C164.751 35.46 164.031 32.96 162.591 31.32C161.151 29.68 159.251 28.86 156.891 28.86C154.531 28.86 152.631 29.68 151.191 31.32C149.751 32.96 149.031 35.46 149.031 38.82C149.031 42.18 149.731 44.7 151.131 46.38C152.571 48.02 154.491 48.84 156.891 48.84Z" fill="white"/>
<path d="M179.698 66.96V31.26C179.698 30.02 179.658 28.76 179.578 27.48C179.498 26.2 179.378 24.94 179.218 23.7H186.478L187.138 30.06H186.478C187.078 27.94 188.338 26.26 190.258 25.02C192.218 23.74 194.478 23.1 197.038 23.1C199.718 23.1 202.058 23.74 204.058 25.02C206.058 26.26 207.618 28.06 208.738 30.42C209.858 32.74 210.418 35.54 210.418 38.82C210.418 42.1 209.858 44.92 208.738 47.28C207.618 49.64 206.058 51.46 204.058 52.74C202.058 53.98 199.718 54.6 197.038 54.6C194.518 54.6 192.298 53.98 190.378 52.74C188.458 51.5 187.178 49.84 186.538 47.76H187.198V66.96H179.698ZM194.938 48.84C197.338 48.84 199.258 48.02 200.698 46.38C202.138 44.7 202.858 42.18 202.858 38.82C202.858 35.46 202.138 32.96 200.698 31.32C199.258 29.68 197.338 28.86 194.938 28.86C192.578 28.86 190.678 29.68 189.238 31.32C187.798 32.96 187.078 35.46 187.078 38.82C187.078 42.18 187.798 44.7 189.238 46.38C190.678 48.02 192.578 48.84 194.938 48.84Z" fill="white"/>
<path d="M216.305 54V31.26C216.305 30.02 216.265 28.76 216.185 27.48C216.105 26.2 215.985 24.94 215.825 23.7H223.085L223.685 29.7H222.965C223.805 27.62 225.085 26 226.805 24.84C228.565 23.68 230.645 23.1 233.045 23.1C235.445 23.1 237.425 23.68 238.985 24.84C240.585 25.96 241.705 27.72 242.345 30.12H241.385C242.225 27.96 243.605 26.26 245.525 25.02C247.445 23.74 249.645 23.1 252.125 23.1C255.525 23.1 258.065 24.1 259.745 26.1C261.425 28.1 262.265 31.22 262.265 35.46V54H254.765V35.76C254.765 33.36 254.365 31.64 253.565 30.6C252.765 29.52 251.485 28.98 249.725 28.98C247.645 28.98 246.005 29.72 244.805 31.2C243.605 32.64 243.005 34.6 243.005 37.08V54H235.505V35.76C235.505 33.36 235.105 31.64 234.305 30.6C233.505 29.52 232.225 28.98 230.465 28.98C228.385 28.98 226.745 29.72 225.545 31.2C224.385 32.64 223.805 34.6 223.805 37.08V54H216.305Z" fill="white"/>
<path d="M283.35 54.6C280.23 54.6 277.53 53.96 275.25 52.68C272.97 51.4 271.19 49.58 269.91 47.22C268.67 44.86 268.05 42.06 268.05 38.82C268.05 35.58 268.67 32.8 269.91 30.48C271.19 28.12 272.97 26.3 275.25 25.02C277.53 23.74 280.23 23.1 283.35 23.1C286.47 23.1 289.17 23.74 291.45 25.02C293.77 26.3 295.55 28.12 296.79 30.48C298.07 32.8 298.71 35.58 298.71 38.82C298.71 42.06 298.07 44.86 296.79 47.22C295.55 49.58 293.77 51.4 291.45 52.68C289.17 53.96 286.47 54.6 283.35 54.6ZM283.35 48.84C285.71 48.84 287.59 48.02 288.99 46.38C290.39 44.7 291.09 42.18 291.09 38.82C291.09 35.46 290.39 32.96 288.99 31.32C287.59 29.68 285.71 28.86 283.35 28.86C280.99 28.86 279.11 29.68 277.71 31.32C276.31 32.96 275.61 35.46 275.61 38.82C275.61 42.18 276.31 44.7 277.71 46.38C279.11 48.02 280.99 48.84 283.35 48.84Z" fill="white"/>
<path d="M317.245 54.6C313.645 54.6 310.925 53.66 309.085 51.78C307.245 49.9 306.325 47.08 306.325 43.32V29.34H300.505V23.7H306.325V15.96L313.825 14.04V23.7H321.925V29.34H313.825V42.84C313.825 44.92 314.225 46.38 315.025 47.22C315.825 48.06 316.925 48.48 318.325 48.48C319.085 48.48 319.725 48.42 320.245 48.3C320.805 48.18 321.345 48.02 321.865 47.82V53.76C321.185 54.04 320.425 54.24 319.585 54.36C318.785 54.52 318.005 54.6 317.245 54.6Z" fill="white"/>
<path d="M326.419 54V23.7H333.919V54H326.419ZM325.999 18V10.68H334.339V18H325.999Z" fill="white"/>
<path d="M355.144 54.6C352.024 54.6 349.324 53.96 347.044 52.68C344.764 51.4 342.984 49.58 341.704 47.22C340.464 44.86 339.844 42.06 339.844 38.82C339.844 35.58 340.464 32.8 341.704 30.48C342.984 28.12 344.764 26.3 347.044 25.02C349.324 23.74 352.024 23.1 355.144 23.1C358.264 23.1 360.964 23.74 363.244 25.02C365.564 26.3 367.344 28.12 368.584 30.48C369.864 32.8 370.504 35.58 370.504 38.82C370.504 42.06 369.864 44.86 368.584 47.22C367.344 49.58 365.564 51.4 363.244 52.68C360.964 53.96 358.264 54.6 355.144 54.6ZM355.144 48.84C357.504 48.84 359.384 48.02 360.784 46.38C362.184 44.7 362.884 42.18 362.884 38.82C362.884 35.46 362.184 32.96 360.784 31.32C359.384 29.68 357.504 28.86 355.144 28.86C352.784 28.86 350.904 29.68 349.504 31.32C348.104 32.96 347.404 35.46 347.404 38.82C347.404 42.18 348.104 44.7 349.504 46.38C350.904 48.02 352.784 48.84 355.144 48.84Z" fill="white"/>
<path d="M376.371 54V31.26C376.371 30.02 376.331 28.76 376.251 27.48C376.171 26.2 376.051 24.94 375.891 23.7H383.151L383.751 29.7H383.031C383.991 27.58 385.411 25.96 387.291 24.84C389.171 23.68 391.351 23.1 393.831 23.1C397.391 23.1 400.071 24.1 401.871 26.1C403.671 28.1 404.571 31.22 404.571 35.46V54H397.071V35.82C397.071 33.38 396.591 31.64 395.631 30.6C394.711 29.52 393.311 28.98 391.431 28.98C389.111 28.98 387.271 29.7 385.911 31.14C384.551 32.58 383.871 34.5 383.871 36.9V54H376.371Z" fill="white"/>
</svg>
